<svg xmlns="http://www.w3.org/2000/svg" width="544" height="491"><path fill="#023357" d="m215.844 28.975 10.736.027a41340 41340 0 0 1 44.97.13l2.304.008c12.377.04 24.754.063 37.131.08q19.182.024 38.365.094c7.149.026 14.297.045 21.446.047q10.06.006 20.12.062 3.675.015 7.348.01c28.411-.038 51.954 6.484 72.92 26.727 25.445 25.658 26.979 56.13 26.945 90.446l.006 7.028q.005 9.48 0 18.962-.003 8.955 0 17.91.004 18.828-.006 37.654a38009 38009 0 0 0 .001 32.168q.01 18.756.005 37.51-.003 9.9.001 19.798.004 9.32-.005 18.639l.002 6.79c.01 10.8-.07 21.582-.543 32.373l-.104 2.518c-.984 19.747-7.86 37.773-20.486 53.044l-2.082 2.574C459.476 451.743 437.325 461.915 414 465c-4.042.257-8.068.275-12.117.26-1.159.005-2.318.008-3.511.012-3.85.01-7.7.007-11.55.003q-4.162.006-8.322.015-10.1.018-20.2.012-8.218-.002-16.435.005l-2.37.001-4.767.004q-22.316.013-44.633.003c-13.58-.006-27.162.006-40.743.025q-20.964.03-41.93.024c-7.833-.002-15.667 0-23.501.014q-10.006.019-20.011.002-5.095-.01-10.19.005c-31.125.088-55.815-5.048-78.72-27.385l-1.992-1.77c-15.34-13.962-22.722-36.06-24.234-56.244-.356-7.973-.298-15.948-.26-23.927a6066 6066 0 0 0-.011-7.955c-.01-6.404 0-12.808.02-19.212.02-7.477.02-14.954.019-22.43-.001-13.347.017-26.694.046-40.04q.044-19.379.041-38.756v-4.825q0-22.146.028-44.292.008-7.798.01-15.598 0-9.509.028-19.018.015-4.842.013-9.684C48.7 109.485 48.7 109.485 51 99c.26-1.256.52-2.511.79-3.805C55.41 81.897 61.704 70.2 71 60l1.312-1.457C79.371 50.796 86.679 44.961 96 40l3.148-1.68c12.618-6.262 25.596-8.907 39.604-9.069q2.084-.042 4.168-.087c24.301-.459 48.62-.257 72.924-.19"/><path fill="#f58814" d="m399.75 127.5 3.436.015c19.07.394 35.803 8.235 49.158 21.88 15.31 17.486 18.845 37.035 17.863 59.725-.453 6.302-1.997 11.956-4.207 17.88l-.731 2.06c-3.743 10.445-8.485 19.154-15.269 27.94l-2.246 2.918c-6.094 7.75-6.094 7.75-8.754 10.082h-2l-1 3c-20.986 17.795-45.951 25.816-72.61 30.883C338.016 308.77 315.715 319.214 296 336l-1.609 1.28c-3.044 2.433-5.321 4.695-7.329 8.033-4.912 7.678-11.2 13.876-17.647 20.256-4.01 3.981-7.767 8.116-11.415 12.431a1217 1217 0 0 1-3.625 4.188l-1.602 1.855c-2.95 3.256-6.109 6.302-9.238 9.387-3.794 3.752-7.546 7.476-10.972 11.57-2.563 3-2.563 3-5.563 5-8.328-.37-12.985-5.77-18.46-11.39-1.67-2.832-2.393-5.09-2.23-8.402 1.555-4.974 6.021-8.282 9.752-11.708q2.553-2.418 5.098-4.844l2.508-2.37c2.728-2.675 5.21-5.496 7.685-8.401 2.725-3.12 5.689-5.99 8.647-8.885 4.3-4.25 8.443-8.539 12.371-13.137 4.521-5.171 9.007-10.061 15.004-13.488 18.232-11.55 27.024-39.519 31.844-59.156 2.496-11.208 3.351-22.487 4.219-33.906.93-12.248 2.228-23.738 6.562-35.313l1.27-3.578c5.063-13.016 12.99-25.19 22.66-35.246 2.193-2.246 2.193-2.246 4.457-5.14 14.449-17.488 39.192-27.665 61.363-27.536"/><path fill="#f2f3f4" d="m122.297 111.805 3.652.02 3.801.05 3.848.027q4.701.036 9.402.098l.078 2.965c.368 12.569.368 12.569 6.86 22.875 5.356 4.184 9.64 5.583 16.43 5.504 5.742-.75 9.848-4.216 13.57-8.469 5.126-7.147 3.404-11.341 4.062-21.875h51l1 13c1.986 6.808 4.396 11.716 10.625 15.313 5.458 2.485 10.868 2.721 16.613 1.027 5.055-2.199 8.258-5.439 10.762-10.34 1.16-4.035 1.338-8.078 1.563-12.25l.13-2.258q.158-2.745.307-5.492c3.833-.088 7.666-.14 11.5-.187l3.266-.077c7.76-.07 13.887.373 19.984 5.639L313 120l2.125 2.375c4.995 6.994 5.84 13.132 4.875 21.625-1.668 6.634-4.8 12.465-10 17-3.63 1.21-6.947 1.135-10.726 1.12l-2.408.003q-4.008 0-8.015-.01l-5.735.001q-7.797-.001-15.594-.013-8.145-.007-16.288-.008-15.428-.005-30.854-.021-17.562-.016-35.122-.022-36.129-.016-72.258-.05.054 24.827.184 49.653c.04 7.685.072 15.37.087 23.056q.019 10.05.084 20.102c.022 3.546.038 7.092.037 10.638-.001 3.965.03 7.928.062 11.893l-.015 3.54c.08 6.277.36 12.123 4.561 17.118 3.713 2.76 6.368 3.378 10.954 3.399l3.616.038 3.941-.005 4.17.031c3.766.028 7.532.037 11.298.043 3.938.01 7.877.036 11.815.06 7.455.044 14.91.072 22.365.095 8.489.027 16.977.071 25.465.117 17.459.093 34.917.164 52.376.222-1.389 3.645-2.779 6.257-5.375 9.188l-1.773 2.042c-3.486 3.331-6.393 4.02-11.156 4.037l-3.258.026-3.56-.002-3.76.02q-5.106.023-10.21.024-3.195.001-6.39.01-11.166.028-22.33.026c-6.918-.002-13.835.02-20.753.051q-8.929.038-17.857.036c-3.55 0-7.098.005-10.647.026-3.968.023-7.936.014-11.904.002l-3.516.034c-9.544-.073-18.849-1.927-26.011-8.676-5.443-6.69-7.61-13.89-7.66-22.356l-.016-1.977c-.016-2.185-.024-4.37-.033-6.554l-.03-4.702q-.043-7.721-.07-15.442l-.01-2.658q-.047-12.42-.074-24.837-.031-15.855-.133-31.71c-.048-7.443-.072-14.885-.08-22.327-.004-4.44-.02-8.879-.059-13.318q-.054-6.274-.032-12.548 0-2.29-.032-4.58c-.13-9.731 1.006-17.665 6.729-25.835 2.5-2.402 4.982-4.302 8-6l1.727-1.056c2.967-1.232 5.361-1.17 8.57-1.14"/><path fill="#f4f4f3" d="m399.75 127.5 3.436.015c19.07.394 35.803 8.235 49.158 21.88 15.31 17.486 18.845 37.035 17.863 59.725-.453 6.302-1.997 11.956-4.207 17.88l-.731 2.06c-3.743 10.445-8.485 19.154-15.269 27.94l-2.246 2.918c-6.094 7.75-6.094 7.75-8.754 10.082h-2l-1 3c-20.986 17.795-45.951 25.816-72.61 30.883C338.016 308.77 315.715 319.214 296 336l-1.609 1.28c-3.044 2.433-5.321 4.695-7.329 8.033-4.912 7.678-11.2 13.876-17.647 20.256-4.01 3.981-7.767 8.116-11.415 12.431a1217 1217 0 0 1-3.625 4.188l-1.602 1.855c-2.95 3.256-6.109 6.302-9.238 9.387-3.794 3.752-7.546 7.476-10.972 11.57-2.563 3-2.563 3-5.563 5-8.328-.37-12.985-5.77-18.46-11.39-1.67-2.832-2.393-5.09-2.23-8.402 1.555-4.974 6.021-8.282 9.752-11.708q2.553-2.418 5.098-4.844l2.508-2.37c2.728-2.675 5.21-5.496 7.685-8.401 2.725-3.12 5.689-5.99 8.647-8.885 4.3-4.25 8.443-8.539 12.371-13.137 4.521-5.171 9.007-10.061 15.004-13.488 18.232-11.55 27.024-39.519 31.844-59.156 2.496-11.208 3.351-22.487 4.219-33.906.93-12.248 2.228-23.738 6.562-35.313l1.27-3.578c5.063-13.016 12.99-25.19 22.66-35.246 2.193-2.246 2.193-2.246 4.457-5.14 14.449-17.488 39.192-27.665 61.363-27.536M353 160l-2.437 1.977C331.536 177.852 319.308 203.474 317 228c-1.042 16.166 2.246 31.185 12.75 43.875 9.034 9.48 20.961 13.6 33.844 14.328 23.846.286 43.225-8.108 61.406-23.203l2.586-2.02c15.938-13.075 26.63-34.743 29.414-54.98 1.074-17.835-3.308-33.315-15-47-11.228-12.004-25.035-17.624-41.437-18.375-18.019.876-34.169 7.236-47.563 19.375"/><path fill="#f5f5f4" d="M417.379 320.441c6.03 3.587 11.717 7.618 15.621 13.559v2h2c5.88 12.007 9.41 22.935 5.313 36.125-2.745 7.53-6.28 13.527-12.313 18.875l-1.824 1.684c-9.361 8.046-20.258 11.23-32.508 10.722C382.322 402.15 373.927 398.317 366 390c-8.497-11.243-11.519-24.119-10-38 3.119-12.055 10.538-22.336 21-29 12.659-7.073 26.948-9.134 40.379-2.559"/><path fill="#fdf5e1" d="M405 153c2.625.625 2.625.625 5 2 .793 1.897.793 1.897 1 4a63 63 0 0 1-5.437 6.25l-1.604 1.68A427 427 0 0 1 400 171c1.408 3.215 3.103 5.322 5.625 7.75l1.914 1.86L409 182c5-4.149 9.438-8.51 13.79-13.34 2.21-1.66 2.21-1.66 4.983-1.414L430 168c.691 2.254.691 2.254 1 5-1.223 2.027-1.223 2.027-3.062 3.938l-1.942 2.074a150 150 0 0 1-3.836 3.695c-1.46 1.357-2.82 2.819-4.16 4.293.181 3.844 2.382 5.697 5.063 8.25l2.222 2.14L427 199c4.955-3.868 8.965-8.189 13-13 1.875.125 1.875.125 4 1 1.25 3.063 1.25 3.063 2 6l-2.441 2.266-3.122 2.984-1.615 1.488c-2.966 2.71-2.966 2.71-3.885 6.438 1.27 2.178 2.593 3.279 4.625 4.762 3.37 2.726 3.37 2.726 4 5.812C443 219 443 219 441 221c-3.027.086-4.611-.663-6.883-2.633A150 150 0 0 1 429 213c-3.215 1.408-5.322 3.103-7.75 5.625l-1.86 1.914L418 222c1.989 4.949 6.032 7.936 9.883 11.465C430 236 430 236 430.43 238.69 430 241 430 241 428 243c-3.52-.095-4.847-.86-7.465-3.25a4698 4698 0 0 1-4.937-5.5C411.87 231.022 408.78 231 404 231v4l-3-1c-2.657.88-2.657.88-5 2 .318-5.4 3.2-7.523 7-11-1.408-3.215-3.103-5.322-5.625-7.75l-1.914-1.86L394 214c-3.452 1.477-5.65 3.438-8.25 6.125l-2.14 2.195L382 224q1.436 1.688 2.875 3.375l1.617 1.898A76 76 0 0 0 390 233c.125 2.625.125 2.625 0 5h2l3 8-3 1a167 167 0 0 0-2 4 94 94 0 0 1-4.133 4.328l-2.441 2.422-2.551 2.5-2.574 2.547A2086 2086 0 0 1 372 269l-5-2c-.063-5.253 1.17-7.602 4.816-11.402a337 337 0 0 1 4.747-4.536l2.443-2.36A603 603 0 0 1 385 243c-1.51-3.18-3.08-5.299-5.625-7.75l-1.914-1.86L376 232c-3.661 1.527-5.875 3.71-8.59 6.57l-2.627 2.715a1258 1258 0 0 0-5.43 5.703l-2.63 2.707-2.383 2.5C352 254 352 254 349.33 254.395 347 254 347 254 345 252c.163-4.75 2.373-6.789 5.727-9.941l2.875-2.768q2.273-2.15 4.556-4.292a547 547 0 0 0 4.381-4.19l2.663-2.507c2.046-2.102 2.046-2.102 1.692-4.482-1.217-2.478-2.835-3.819-4.957-5.57l-2.222-1.86L358 215c-4.782 3.9-4.782 3.9-8.937 8.438-1.89 2.348-3.81 4.373-6 6.437l-1.965 1.867C339 233 339 233 336.246 232.695L334 232c-.719-2.262-.719-2.262-1-5 1.406-1.957 1.406-1.957 3.5-3.812 2.93-2.72 5.729-5.44 8.375-8.438l1.68-1.89c1.454-1.872 2.464-3.708 3.445-5.86l-1.969-1.574-2.531-2.113-2.531-2.075C341 199 341 199 340.64 196.348c.36-2.348.36-2.348 1.61-4.223 1.75-1.125 1.75-1.125 3.57-.98 3.012 1.182 4.605 3.066 6.805 5.417A115 115 0 0 0 357 201c2.152.235 2.152.235 3.656-1.645l1.844-2.167 1.844-2.145c1.791-2.145 1.791-2.145 3.656-5.043l-2.406-2.125c-8.2-7.52-8.2-7.52-9.324-11.387.043-2.175.043-2.175.73-5.488 1.762-.691 1.762-.691 4-1 1.895 1.223 1.895 1.223 3.813 3.063l2.082 1.945L369 177q1.99 1.731 4 3.438l3 2.562 9-9c-1.889-3.777-3.132-5.182-6.187-7.875-2.168-2.086-2.168-2.086-3.813-4.125 0-3.5 0-3.5 1-6 4.037 0 6.074.239 9.246 2.848A140 140 0 0 1 391 165c3.391-1.431 5.238-3.17 7.563-6 2.11-2.558 3.637-4.133 6.437-6"/><path fill="#00000d" d="m215.844 28.975 10.736.027a41340 41340 0 0 1 44.97.13l2.304.008c12.377.04 24.754.063 37.131.08q19.182.024 38.365.094c7.149.026 14.297.045 21.446.047q10.06.006 20.12.062 3.675.015 7.348.01c28.411-.038 51.954 6.484 72.92 26.727C485.643 70.74 494.838 88.448 497 109l-2 1-.7-3.043C488.327 81.611 477.003 60.743 455 46c-16.568-10.038-33.986-14.324-53.307-14.267l-3.536-.014q-4.798-.014-9.596-.01c-3.466 0-6.931-.01-10.397-.02q-10.162-.023-20.323-.023-8.268-.002-16.537-.012a38549 38549 0 0 0-52.1-.024c-13.664 0-27.328-.019-40.993-.047q-21.098-.043-42.197-.04c-7.883 0-15.765-.005-23.648-.027q-10.067-.029-20.135-.009-5.125.01-10.25-.01c-18.097-.076-34.574.534-51.044 8.878l-2.31 1.094c-4.763 2.326-8.87 5.053-12.996 8.381C84 51 84 51 82 51l-1 3a223 223 0 0 1-4.396 3.634C62.628 69.531 54.358 90.275 52 108c-.147 3.679-.14 7.355-.134 11.036l-.007 3.378a5855 5855 0 0 0-.004 11.213l-.01 8.038q-.012 9.788-.012 19.574 0 7.961-.006 15.922a71212 71212 0 0 0-.012 50.105q-.002 19.736-.023 39.47-.023 20.286-.02 40.57.001 11.38-.014 22.76-.015 9.693-.005 19.386.007 4.939-.005 9.878c-.008 3.582-.003 7.163.005 10.745l-.016 3.103c.123 26.035 9.56 47.736 27.51 66.123C85.164 444.894 91.963 448.974 99 453l2.152 1.25c12.158 6.58 25.036 7.903 38.58 7.884l3.532.007q4.827.007 9.653.004 5.217.002 10.432.01 10.21.012 20.42.012 8.304 0 16.608.006 23.57.013 47.14.012h5.133q20.587.002 41.176.023 21.166.023 42.333.02 11.873-.001 23.745.014 10.11.015 20.221.005 5.153-.007 10.304.005c3.734.008 7.469.003 11.204-.005l3.24.016c10.383-.047 20.643-1.14 30.314-5.076l2.048-.807c1.931-.773 3.85-1.57 5.765-2.38l2.816-1.188c20.287-9.378 35.22-27.374 43.457-47.827 4.408-12.038 5.873-24.31 5.885-37.045l.015-3.313c.016-3.65.024-7.302.032-10.953l.03-7.866q.033-8.457.056-16.916.035-12.229.08-24.458.071-19.843.132-39.685.059-19.27.125-38.541l.008-2.401.041-11.927q.17-49.44.323-98.88h1c.792 6.76 1.144 13.406 1.127 20.21l.005 2.964c.004 3.25 0 6.5-.003 9.751l.006 7.025q.005 9.52 0 19.037-.003 8.978 0 17.957.004 18.887-.006 37.773-.005 16.14.001 32.282.01 18.797.005 37.595-.003 9.93.001 19.86.004 9.355-.005 18.71l.002 6.82c.01 10.828-.07 21.64-.543 32.46l-.104 2.517c-.985 19.745-7.862 37.77-20.486 53.039l-2.082 2.574C459.476 451.743 437.325 461.915 414 465c-4.042.257-8.068.275-12.117.26-1.159.005-2.318.008-3.511.012-3.85.01-7.7.007-11.55.003q-4.162.006-8.322.015-10.1.018-20.2.012-8.218-.002-16.435.005l-2.37.001-4.767.004q-22.316.013-44.633.003c-13.58-.006-27.162.006-40.743.025q-20.964.03-41.93.024c-7.833-.002-15.667 0-23.501.014q-10.006.019-20.011.002-5.095-.01-10.19.005c-31.125.088-55.815-5.048-78.72-27.385l-1.992-1.77c-15.34-13.962-22.722-36.06-24.234-56.244-.356-7.973-.298-15.948-.26-23.927a6066 6066 0 0 0-.011-7.955c-.01-6.404 0-12.808.02-19.212.02-7.477.02-14.954.019-22.43-.001-13.347.017-26.694.046-40.04q.044-19.379.041-38.756v-4.825q0-22.146.028-44.292.008-7.798.01-15.598 0-9.509.028-19.018.015-4.842.013-9.684C48.7 109.485 48.7 109.485 51 99c.26-1.256.52-2.511.79-3.805C55.41 81.897 61.704 70.2 71 60l1.312-1.457C79.371 50.796 86.679 44.961 96 40l3.148-1.68c12.618-6.262 25.596-8.907 39.604-9.069q2.084-.042 4.168-.087c24.301-.459 48.62-.257 72.924-.19"/><path fill="#fdf7e6" d="M440 186c1.922.309 1.922.309 4 1 1.25 3.063 1.25 3.063 2 6l-2.441 2.266-3.122 2.984-1.615 1.488c-2.966 2.71-2.966 2.71-3.885 6.438 1.27 2.178 2.593 3.279 4.625 4.762 3.37 2.726 3.37 2.726 4 5.812C443 219 443 219 441 221c-3.027.086-4.611-.663-6.883-2.633A150 150 0 0 1 429 213c-3.215 1.408-5.322 3.103-7.75 5.625l-1.86 1.914L418 222c1.989 4.949 6.032 7.936 9.883 11.465C430 236 430 236 430.43 238.69 430 241 430 241 428 243c-3.52-.095-4.847-.86-7.465-3.25a4698 4698 0 0 1-4.937-5.5C411.87 231.022 408.78 231 404 231v4l-3-1c-2.657.88-2.657.88-5 2 .318-5.4 3.2-7.523 7-11-1.408-3.215-3.103-5.322-5.625-7.75l-1.914-1.86L394 214c-3.452 1.477-5.65 3.438-8.25 6.125l-2.14 2.195L382 224q1.436 1.688 2.875 3.375l1.617 1.898A76 76 0 0 0 390 233c.125 2.625.125 2.625 0 5h2l3 8-3 1a167 167 0 0 0-2 4 94 94 0 0 1-4.133 4.328l-2.441 2.422-2.551 2.5-2.574 2.547A2086 2086 0 0 1 372 269l-5-2c-.063-5.253 1.17-7.602 4.816-11.402a337 337 0 0 1 4.747-4.536l2.443-2.36A603 603 0 0 1 385 243c-1.51-3.18-3.08-5.299-5.625-7.75l-1.914-1.86L376 232c-3.661 1.527-5.875 3.71-8.59 6.57l-2.627 2.715a1258 1258 0 0 0-5.43 5.703l-2.63 2.707-2.383 2.5C352 254 352 254 349.33 254.395 347 254 347 254 345 252c.274-4.1 1.595-6.1 4.457-8.953l2.123-2.125 2.233-2.172 2.197-2.219c5.609-5.542 5.609-5.542 9.99-6.531l1-2h3v-2l3-1 2-2 1 2 .516-1.898.734-2.477.703-2.46c1.297-2.681 2.419-2.93 5.047-4.165 1.292-1.788 1.292-1.788 2.188-3.875l.98-2.055c.807-2.008 1.364-3.96 1.832-6.07l4 1 .5-1.812c2.313-3.373 5.699-4.021 9.5-5.188v2l3 1h-2l-.312 2.25c-.73 2.92-1.756 4.482-3.688 6.75l1.625.625c3.377 1.955 5.68 4.557 8.375 7.375 3.215-1.408 5.322-3.103 7.75-5.625l1.86-1.914L420 207c-1.365-3.203-2.761-4.783-5.562-6.812-2.949-2.414-3.4-3.053-4.5-6.938C410 190 410 190 412 188h3l-2 5h5v2h3v5c4.604-.134 7.04-.602 10.309-3.941a168 168 0 0 0 3.128-3.621l1.64-1.866c1.323-1.51 2.625-3.04 3.923-4.572"/><path fill="#f38715" d="M392 213c3.452 1.477 5.65 3.438 8.25 6.125l2.14 2.195L404 223c-1.288 2.827-2.27 4.264-4.562 6.5-2.302 2.36-3.084 3.316-3.438 6.5l6-3 1 1 1-3c2.7-.844 4.241-1.297 7-1 3.03 1.96 5.464 4.449 8 7 3.84 3.776 3.84 3.776 8.875 5.313L430 242c.496-4.596.496-4.596-1.113-8.8-1.233-1.456-2.555-2.835-3.887-4.2h3l-1-1-2-2 6-9 2.125 1.938c3.103 2.226 5.121 2.713 8.875 3.062l1-2h2l1-4v2l5-2 1 1 3-4c-.544 5.507-1.966 9.916-4.25 14.938l-.959 2.138c-3.894 8.538-8.898 15.639-14.791 22.924l-1.441 1.926c-3.933 4.959-8.662 8.658-13.684 12.449l-2.101 1.59c-3.468 2.554-6.629 4.696-10.774 6.035v-2h2v-3h3v-2h-4l2-5h-3l-2 4-2-1 .809-2.168c.52-3.024.52-3.024-1.899-5.508l-2.848-2.637-2.84-2.675L394 251l-1.812 1C390 253 390 253 387 253c4.75-5.75 4.75-5.75 7-8l-2-2c-.125-2.625-.125-2.625 0-5h-2l-1 2 .5-3c.048-2.933-.423-3.902-2.281-6.246A122 122 0 0 0 381 225c3.509-4.184 7.08-8.196 11-12"/><path fill="#fdf6e5" d="M405 153c2.625.625 2.625.625 5 2 .941 1.727.941 1.727 1 4a46.5 46.5 0 0 1-4.687 5.75l-1.358 1.535c-1.342 1.45-1.342 1.45-3.955 3.715h-4c-.151 3.629-.151 3.629 1 7l-1 2-6-1-.625 2.125c-1.758 3.677-4.18 6.348-7.375 8.875h-2v5l-3-3-2 4h-3l-.062 2.063c-1.407 4.406-4.569 6.885-7.938 9.937l2 3.313c1.585 2.624 2 3.513 2 6.687h3c1.125 3.75 1.125 3.75 0 6-6.193-1.29-10.153-3.996-15-8l-1.906 2.16c-4.01 4.486-8.026 8.96-12.406 13.09l-1.801 1.703C339 233 339 233 336.27 232.672L334 232c-.719-2.262-.719-2.262-1-5 1.406-1.957 1.406-1.957 3.5-3.812 2.93-2.72 5.729-5.44 8.375-8.438l1.68-1.89c1.454-1.872 2.464-3.708 3.445-5.86l-1.969-1.574-2.531-2.113-2.531-2.075C341 199 341 199 340.64 196.348c.36-2.348.36-2.348 1.61-4.223 1.75-1.125 1.75-1.125 3.57-.98 3.012 1.182 4.605 3.066 6.805 5.417A115 115 0 0 0 357 201c2.152.235 2.152.235 3.656-1.645l1.844-2.167 1.844-2.145c1.791-2.145 1.791-2.145 3.656-5.043l-2.406-2.125c-8.2-7.52-8.2-7.52-9.324-11.387.043-2.175.043-2.175.73-5.488 1.762-.691 1.762-.691 4-1 1.895 1.223 1.895 1.223 3.813 3.063l2.082 1.945L369 177q1.99 1.731 4 3.438l3 2.562 9-9c-1.889-3.777-3.132-5.182-6.187-7.875-2.168-2.086-2.168-2.086-3.813-4.125 0-3.5 0-3.5 1-6 4.037 0 6.074.239 9.246 2.848A140 140 0 0 1 391 165c3.391-1.431 5.238-3.17 7.563-6 2.11-2.558 3.637-4.133 6.437-6"/><path fill="#f4f3f1" d="M435 336c5.88 12.007 9.41 22.935 5.313 36.125C436.018 383.905 428.85 390.553 419 398c-6.641-6.146-9.646-13.773-10.152-22.68-.356-11.174 2.37-20.346 9.152-29.32 9.632-10 9.632-10 17-10"/><path fill="#f0f1f3" d="m145.023 185.602 3.594-.012 3.758.035 3.734-.035 3.602.012 3.29.01c3.38.437 5.273 1.377 7.999 3.388 2.162 4.323 1.274 10.064 1.313 14.813l.087 3.603.026 3.479.044 3.182c-.606 3.771-1.638 5.369-4.47 7.923-3.069.6-3.069.6-6.629.559l-3.885-.022-2.013-.05c-2.033-.05-4.063-.061-6.096-.067-9.935-.125-9.935-.125-13.377-2.42-.388-3.025-.388-3.025-.398-6.871l-.01-2.055q-.002-2.153.017-4.305c.016-2.195 0-4.388-.02-6.583q.004-2.091.013-4.182l.01-3.85C136 189 136 189 137.148 187.088c2.671-1.568 4.79-1.476 7.875-1.485"/><path fill="#eff1f3" d="m256.023 185.469 3.594-.016 3.758.047c1.232-.015 2.465-.03 3.734-.047l3.602.016 3.29.013c3.786.654 5.422 1.676 7.999 4.518.615 2.96.615 2.96.594 6.375l-.008 3.734L282.5 204l.008 3.89c-.097 9.229-.097 9.229-1.613 12.477-2.819 2.429-5.005 2.135-8.68 2.13-.657 0-1.314.002-1.99.004a302 302 0 0 1-4.159-.034c-2.125-.03-4.247-.021-6.373-.008q-2.02-.01-4.04-.025l-3.72-.03L249 222c-3.159-4.738-2.334-9.822-2.316-15.397.003-2.03-.02-4.06-.045-6.09l-.002-3.884-.01-3.56c.77-6.345 3.271-7.575 9.396-7.6"/><path fill="#f1f3f4" d="M151.879 240.63c2.114-.005 4.226-.041 6.34-.08q2.015-.009 4.031-.01l3.703-.026c3.047.486 3.047.486 4.944 2.16 1.346 2.838 1.49 4.871 1.501 8.01l.012 3.31-.035 3.444.035 3.431-.012 3.315-.01 3.017c-.491 3.545-1.84 6.25-4.388 8.799-4.096.266-8.196.271-12.3.295-2.06.017-4.118.061-6.177.105l-3.921.026-3.615.044C139 276 139 276 137.112 274.39c-1.463-3.143-1.5-5.59-1.51-9.054l-.012-3.898.019-2.02c.016-2.044 0-4.085-.02-6.129l.013-3.89.01-3.573L136 243c4.787-3.192 10.28-2.372 15.879-2.37"/><path fill="#f0f2f3" d="m201.938 185.602 3.46-.012 3.602.035 3.602-.035 6.62.022c3.16.441 4.519 1.167 6.778 3.388 1.662 4.986 1.268 10.154 1.313 15.375l.087 3.445.026 3.328.044 3.037c-.617 3.694-1.713 5.293-4.47 7.815-2.977.615-2.977.615-6.41.594l-3.748-.008-3.905-.086-3.916.008c-9.33-.098-9.33-.098-11.886-1.615-1.72-2.868-1.542-5.321-1.569-8.643l-.015-1.983q-.01-2.073.003-4.146c.008-2.114-.02-4.226-.052-6.34q-.003-2.015.002-4.031l-.006-3.703C192 189 192 189 193.66 187.103c2.916-1.374 5.056-1.491 8.278-1.501"/><path fill="#f2f3f4" d="M207.452 240.63c2.041-.005 4.08-.041 6.122-.08l3.895-.01 3.576-.026c2.955.486 2.955.486 4.836 2.13 2.329 4.904 1.587 10.533 1.556 15.856l.061 3.746-.002 3.598.006 3.287C227 272 227 272 225.37 274.354c-3.091 2.147-5.034 2.148-8.78 2.142l-3.748.002-3.905-.06-3.916.021c-9.351-.063-9.351-.063-11.888-1.562-1.721-2.883-1.522-5.348-1.531-8.682l-.01-1.99q-.002-2.08.017-4.159c.016-2.125 0-4.248-.02-6.373q.004-2.02.013-4.04l.01-3.72L192 243c4.748-3.166 9.864-2.372 15.452-2.37"/><path fill="#f68e13" d="M377 323c5.313 10 5.177 21.374 2.375 32.125-3.467 10.991-9.474 18.623-17.375 26.875-6.87-8.545-7.085-19.502-6-30 3.239-12.32 10.612-21.886 21-29"/><path fill="#091a32" d="M113 162h195v1H115l.438 63.688.13 20.112.088 11.895q.03 3.975.052 7.949.037 6.02.087 12.038l.017 3.58.03 3.277.02 2.847c.139 2.626.557 5.053 1.138 7.614l2.875.938C123 298 123 298 125 299c1.845.103 3.694.142 5.542.151l3.57.026 3.935.012 4.129.026q4.45.027 8.902.045 7.032.032 14.066.077 14.928.088 29.856.163c10.743.055 21.486.111 32.229.178q6.996.042 13.992.071 4.347.021 8.693.05 2.987.016 5.975.024l3.569.026 3.115.015C265 300 265 300 267 301c-1.75 3.875-1.75 3.875-4 5l1-4-2.185.011a19737 19737 0 0 1-52.656.196c-8.489.02-16.977.049-25.465.095q-11.097.06-22.196.074c-3.917.006-7.834.018-11.751.047q-5.533.039-11.066.03c-1.995.001-3.99.023-5.986.045-4.93-.023-8.729-.088-13.297-2.026-6.735-6.941-6.967-13.76-6.852-23.13l-.002-3.848c0-3.414.023-6.828.05-10.242.024-3.211.025-6.422.028-9.634.02-9.373.076-18.745.128-28.118z"/><path fill="#eff1f3" d="m164 86.313 1.938-.075c3.334 1.232 5.257 3.81 7.062 6.762.615 3.54.615 3.54.594 7.41v2.09q-.008 2.175-.052 4.35a300 300 0 0 0-.034 6.629c-.097 13.11-.097 13.11-5.508 18.521-7.079.685-7.079.685-10.437-1.812-3.907-5.47-2.862-12.777-2.913-19.239a332 332 0 0 0-.082-4.637 373 373 0 0 1-.091-6.71l-.07-2.081c.018-3.885.5-5.407 2.997-8.452 3.482-2.775 3.482-2.775 6.596-2.757"/><path fill="#f4f5f6" d="M256.902 86.336C260.27 87.402 261.784 89.29 264 92c.477 2.796.659 4.968.594 7.75v2.23q-.008 2.325-.052 4.649a344 344 0 0 0-.034 7.09q-.015 2.265-.04 4.531v2.128c-.104 4.352-.805 7.154-3.468 10.622-3.057 1.528-5.63 1.232-9 1-3.185-1.76-3.833-2.499-5-6a180 180 0 0 1-.238-7.555l-.025-2.238q-.02-2.342-.032-4.685a424 424 0 0 0-.062-4.783 491 491 0 0 1-.069-6.919l-.053-2.147c.016-3.538.417-5.57 2.26-8.623 2.646-2.445 4.56-2.643 8.121-2.714"/><path fill="#f0901e" d="m435 336 3 7-1.793 1.137C427.162 349.995 421.861 355.764 418 366c-1.653 8.327 1.33 16.595 5.637 23.7C425 392 425 392 425 394l-7 4a685 685 0 0 1-2.875-4.187l-1.617-2.356c-5.136-8.368-5.706-18.572-4.047-28.105 3.008-11.22 9.542-20.535 19.562-26.57C431 336 431 336 435 336"/><path fill="#f58d16" d="M315 272c1.85 2.277 3.68 4.554 5.39 6.938 5.154 7.16 10.65 11.356 18.61 15.062v2l-2.902.996C325.505 300.74 315.803 305.54 306 311l-3.07 1.688A748 748 0 0 0 297 316a258 258 0 0 1 3.734-7.258c4.908-9.344 8.56-18.739 11.667-28.817.826-2.655 1.71-5.29 2.599-7.925"/><path fill="#fdf5e0" d="M392 213c3.452 1.477 5.65 3.438 8.25 6.125l2.14 2.195L404 223c-1.288 2.827-2.27 4.264-4.562 6.5-2.302 2.36-3.084 3.316-3.438 6.5l6-3 1 1 1-3 5-1-9 12 2.59 2.484 3.348 3.266 1.708 1.633 1.631 1.601 1.508 1.46c1.442 1.847 1.903 3.243 2.215 5.556-1.125 1.813-1.125 1.813-3 3-4.825-.254-6.892-2.464-10.125-5.875l-2.57-2.68L395 250a390 390 0 0 0-3-3l2-2-2-2c-.125-2.625-.125-2.625 0-5h-2l-1 2 .5-3c.048-2.933-.423-3.902-2.281-6.246A122 122 0 0 0 381 225c3.509-4.184 7.08-8.196 11-12"/><path fill="#f5f2ee" d="M369 329c4.333 8.377 3.916 16.715 1.375 25.688-2.518 7.438-5.834 13.773-12.375 18.312-3.518-7.333-3.148-16.588-1.125-24.363 2.76-7.002 6.755-14.267 12.125-19.637"/><path fill="#081c34" d="m99 123 3 2-1.477 3.051c-1.614 3.785-1.893 6.992-1.884 11.13l-.008 2.085c-.004 2.287.012 4.572.028 6.859v4.939c-.002 4.456.016 8.912.037 13.368.019 4.662.02 9.324.024 13.985.01 8.822.034 17.644.064 26.466.034 10.046.05 20.092.065 30.138Q98.898 268.01 99 299l-3-1q-.106-32.676-.155-65.35c-.016-10.115-.037-20.23-.071-30.345q-.046-13.224-.056-26.449c-.004-4.668-.013-9.335-.035-14.003q-.03-6.592-.022-13.186-.001-2.416-.019-4.833a630 630 0 0 1-.003-6.614l-.008-3.735c.433-4.088 1.586-6.805 3.369-10.485"/><path fill="#ec8118" d="M392 213c3.668 1.834 5.468 3.25 8.25 6.125l2.14 2.195L404 223c-1.536 3.68-3.782 5.988-6.625 8.75l-2.477 2.422L393 236c-4.526-3.678-8.394-7.41-12-12z"/><path fill="#ed8116" d="M375 196c3.806 3.22 7.54 6.402 11 10-1.516 3.478-3.577 5.956-6.125 8.75l-2.195 2.422L376 219c-4.526-3.678-8.394-7.41-12-12z"/><path fill="#f68713" d="M391 179c4.042 1.345 6.387 3.05 9.313 6.125l2.113 2.195L404 189c-3.678 4.526-7.41 8.394-12 12l-11-11 5-5a116 116 0 0 0 2.813-3.312z"/><path fill="#ee8213" d="M409 195c2 0 2 0 4.313 2.188L416 200l2.813 2.813L421 205c-1.477 3.452-3.438 5.65-6.125 8.25l-2.195 2.14L411 217c-3.239-1.444-5.62-3.258-8.25-5.625l-2.14-1.914L399 208c1.396-3.186 3.046-5.24 5.563-7.625 2.577-2.42 2.577-2.42 4.437-5.375"/><path fill="#0d263f" d="m145.656 238.336 3.848-.02c1.319.02 2.637.04 3.996.059l3.996-.059 3.848.02 3.506.017c4.17.856 5.642 2.24 8.15 5.647.568 3.138.568 3.138.488 6.613l-.049 3.78-.126 3.92-.069 3.978A711 711 0 0 1 173 272h-1l-.06-2.43a2643 2643 0 0 0-.315-10.882c-.03-1.263-.062-2.526-.094-3.827l-.117-3.662-.095-3.38c-.124-3.023-.124-3.023-2.319-5.819-3.073-.435-3.073-.435-6.687-.328l-1.995.006q-2.088.01-4.176.04c-2.134.032-4.266.042-6.4.048-6.57-.329-6.57-.329-12.742 1.234q-.075 6.112-.11 12.225-.016 2.08-.04 4.159a828 828 0 0 0-.045 5.98l-.032 3.633c-.006 3.185-.006 3.185 2.227 6.003 3.204.419 3.204.419 6.977.293l2.076-.013a686 686 0 0 0 6.572-.092q2.226-.024 4.453-.042 5.461-.051 10.922-.146l-1 2c-3.302 1.1-5.94 1.206-9.418 1.316l-3.799.127-3.97.12-4.006.13q-4.904.16-9.807.307c-4.977-6.63-4.633-13.058-4.562-21.125l-.073-3.824.006-3.684-.002-3.34c1.423-6.824 5.796-8.66 12.287-8.691"/><path fill="#000315" d="M423 31c19.18.323 38.224 14.951 51 28 12.999 13.802 21.015 31.13 23 50l-2 1-.7-3.043C488.327 81.611 477.003 60.743 455 46c-10.433-6.32-21.906-11.173-34-13z"/><path fill="#ec9224" d="M371 334h2c.029 3.146.047 6.292.063 9.438l.025 2.72.01 2.588.016 2.396C373 353 373 353 372 354a236 236 0 0 0-1 7h-2c1.312 1.562 1.312 1.562 3 3h3c-1.383 3.978-3.229 6.86-5.875 10.125l-2.055 2.57c-1.895 2.11-3.74 3.706-6.07 5.305-3.064-5.392-3.064-5.392-2.797-7.945.979-2.523 2.344-4.131 4.11-6.18 6.57-8.176 8.846-16.828 8.75-27.187l-.028-3.801z"/><path fill="#f18513" d="M427 212c3.005 1.325 4.81 2.706 6.938 5.188 1.466 1.618 1.466 1.618 3.062 2.812 2.814.041 2.814.041 5-1l1-5 4 2h-2v4c-2.19 2.19-2.963 2.74-6 3-2.798-1.4-4.788-2.788-7-5-2.969 2.545-4.362 5.49-6 9h3c-1 3-1 3-2 4l2 1.563c2.656 3.237 2.313 5.363 2 9.437h-3l1-1c.588-2.272.588-2.272 0-5-1.746-2.372-3.844-4.315-6-6.312l-1.734-1.667A439 439 0 0 0 417 224c1.477-3.452 3.438-5.65 6.125-8.25l2.195-2.14z"/><path fill="#f18f1c" d="m326 287 2.336 1.277 3.039 1.66 3.023 1.653A157 157 0 0 0 339 294v2l-2.902.996C325.505 300.74 315.803 305.54 306 311l-3.07 1.688A748 748 0 0 0 297 316l8-16c1.136 3.717.667 5.47-1 9h3l2-4 3 1 .625-1.937C314 302 314 302 317.125 301.25L320 301l.25-2.375L321 296l2-.875 2-1.125c.819-3.562.819-3.562 1-7"/><path fill="#0c233a" d="M302 236h1c1.53 30.061-8.285 62.013-28 85l-2 1 2-5-2-1 1.805-.238c4.237-1.47 6.09-6.01 8.195-9.762 1.368-3.337 1.368-3.337 2-6h2l.313-2.5c.803-4.093 2.15-7.625 3.687-11.5h2c2.548-7.997 3.614-15.625 4-24h2v-9h1z"/><path fill="#132e4c" d="M468 168v7l3 1c5.766 14.187 4.29 37.02-1.5 51l-1.5 3-1.187 2.438L466 234c-1.043-5.21-.819-8.396.938-13.375 5.08-16.664 2.773-35.157-1.938-51.625 2-1 2-1 3-1"/><path fill="#fdf1d7" d="M415 222h2c1.516 1.54 1.516 1.54 3.25 3.625 2.276 2.706 4.573 5.184 7.188 7.563C430 236 430 236 430.5 238.75 430 241 430 241 428 243c-3.481-.106-4.877-.895-7.535-3.18l-2.527-2.695c-2.842-3.003-5.542-5.756-8.938-8.125l6-2-1-3z"/><path fill="#fcf4e0" d="M358 170c4.91.267 7.025 2.6 10.313 6.063l2.675 2.785L373 181l-3 1 1 7-3 1c-10.453-9.231-10.453-9.231-11.766-13.477.035-4.792.035-4.792 1.766-6.523"/><path fill="#002240" d="M114 163h1l.013 1.985q.155 23.911.326 47.823.085 11.564.158 23.127.065 10.08.14 20.158.04 5.337.072 10.673.036 5.958.086 11.916l.017 3.573.03 3.284.02 2.847c.139 2.626.557 5.053 1.138 7.614l2.875.875C123 298 123 298 125 300c-1.687.75-1.687.75-4 1-4.52-2.646-6.668-6.033-8-11-.392-4.156-.321-8.282-.249-12.453l.028-3.757q.044-5.072.119-10.145c.047-3.54.076-7.081.108-10.622.062-6.697.14-13.394.223-20.09.095-7.628.171-15.256.247-22.883q.234-23.526.524-47.05"/><path fill="#ef901e" d="M416 367h1l.227 2.422c.913 7.633 2.807 13.489 6.53 20.215C425 392 425 392 425 394l-7 4a400 400 0 0 1-2.937-4.187l-1.653-2.356c-1.456-2.537-2.006-4.579-2.41-7.457h2v-2h2a88 88 0 0 0 1-5l-1-1c-.133-1.812-.133-1.812-.125-4l-.008-2.187C415 368 415 368 416 367"/><path fill="#eb8923" d="m360 154 2 1c-2.625 3.875-2.625 3.875-6 5l-1 2 4-1c1.208 3.623.543 4.641-1 8l7 1-1 3-3-2h-3c-.689 3.32-.932 4.796 0 8 3.335 4.059 7.068 7.527 11 11l-4 4 .277-2.207c-.379-3.817-1.929-4.92-4.714-7.48-4.503-4.193-4.503-4.193-5.563-6.313-.07-2.795.003-5.576.063-8.371.063-2.74.063-2.74-1.063-5.629-2.445.188-2.445.188-5 1a90 90 0 0 0-2 4c-2.059.625-2.059.625-4 1 4.95-6.288 10.718-11.07 17-16"/><path fill="#132336" d="m373 324 2 1-1.54 1.215c-8.305 6.86-14.127 15.135-16.46 25.785-.81 9.102-.34 17.4 3 26l1.188 3.625L362 384c-4.945-3.297-5.968-8.363-7.187-13.937-1.95-10.867-.407-22.957 4.187-33.063l3-1 1-7 2.75-.812c2.965-1.084 4.867-2.172 7.25-4.188"/><path fill="#ef9429" d="M451 174c6.146 6.146 6.034 17.918 6.125 26.125-.03 4.06-.24 7.896-1.125 11.875h-1l-1-20-2 2-2-1v-3h-2l-1-5 3-1z"/><path fill="#142c46" d="M381 302v1c-4.96 1.56-9.695 2.386-14.875 2.875-5.51.595-10.086 1.634-15.031 4.164-3.775 1.733-7.943 2.766-12.094 2.961l-3-2c5.338-2.45 10.625-4.119 16.313-5.562l2.55-.653A1322 1322 0 0 1 362 303c1.038-.264 2.075-.529 3.145-.8 5.599-1.297 10.175-1.116 15.855-.2"/><path fill="#fdf8e8" d="M386 206c1 3 1 3 .11 4.824l-1.36 1.863-1.328 1.887L382 216h-3l-.375 3.313C378 223 378 223 376 226l-2-1-2 2-2-1v2h-3l-1 3-3-1 2-1.75c2.443-2.247 2.443-2.247 2-6.25l5 1v-6h-3l-1-5 8 6q1.659-1.873 3.313-3.75l1.863-2.11A105 105 0 0 0 386 206"/><path fill="#e0791f" d="M391 179c4.042 1.345 6.387 3.05 9.313 6.125l2.113 2.195L404 189a707 707 0 0 1-2.875 3.438l-1.617 1.933C398 196 398 196 396 197c1.372-2.954 2.989-5.44 5-8a488 488 0 0 0-3.312-3.437l-1.864-1.934c-1.83-1.851-1.83-1.851-4.824-2.629l-2 5h2c0 3.796-.502 5.629-2 9l4 4-1 2-11-11 5-5a116 116 0 0 0 2.813-3.312z"/><path fill="#feefd3" d="m328 185 3 1a150 150 0 0 1-3.367 7.988c-8.45 18.63-11.26 37.648-8.633 58.012h-2l-.184-1.934-.253-2.504-.247-2.496c-.105-2.053-.105-2.053-1.316-3.066-.1-2.332-.13-4.666-.125-7l-.008-3.875C315 228 315 228 316 227c.474-2.373.905-4.74 1.313-7.125 1.441-8.1 3.447-15.96 5.687-23.875h2l.375-1.562c.811-3.165 1.72-6.3 2.625-9.438"/><path fill="#102339" d="M439 344h2c1.67 5.113 2.387 9.79 2.375 15.188l-.003 2.245c-.143 6.716-1.76 12.384-4.372 18.567l-.687 2.078c-2.56 7.358-9.363 11.121-15.614 15.137L421 398l-2-1a791 791 0 0 1 4.375-3.5l2.46-1.969C428 390 428 390 430 390l.852-1.781c1.054-2.038 2.224-3.832 3.523-5.719 7.955-12.699 7.347-24.354 4.625-38.5"/><path fill="#fbf8e6" d="m345 217 2 1-2 7h-2l-.312 2.313c-.745 2.908-1.168 4.067-3.688 5.687-2.687-.312-2.687-.312-5-1-.875-2.125-.875-2.125-1-5 2.987-4.508 6.762-6.753 12-8z"/><path fill="#f7f3eb" d="M357 349c1.984 2.917 1.988 4.124 1.625 7.75L358 360c2.692 2.299 2.692 2.299 5 1.625l2-.625h3a467 467 0 0 1-2.75 4.313l-1.547 2.425c-1.706 2.266-3.361 3.689-5.703 5.262-2.16-4.355-2.27-8.363-2.187-13.125l.001-2.168c.027-3.159.18-5.691 1.186-8.707"/><path fill="#071f38" d="M197 185c4.437-.029 8.875-.047 13.313-.062l3.826-.026 3.662-.01 3.38-.016C224 185 224 185 227 186v3h2l1 29h-4c.01-.767.02-1.533.032-2.323.041-3.476.067-6.951.093-10.427l.05-3.656.02-3.516.032-3.237c-.228-2.85-.66-4.472-2.227-6.841-2.627-1.314-4.726-1.213-7.664-1.316l-3.399-.127-3.562-.12-3.586-.13q-4.395-.16-8.789-.307z"/><path fill="#feeed4" d="M446 164h2c6.155 8.84 9.376 16.274 9 27l3 1a720 720 0 0 1-.312 8.063l-.069 2.279c-.248 5.206-1.303 8.983-3.619 13.658-.841-2.43-1.01-3.943-.562-6.5 2.641-16.436-1.825-31.075-9.438-45.5"/><path fill="#f9f2e3" d="m437 343 2 4-3 3-2-4c-1.576 2.886-2.463 5.533-3.125 8.75l-.508 2.422L430 359h-2l-1-3c-2.993 1.098-3.846 1.677-5.25 4.625L421 363h-2c2.426-8.49 6.743-13.294 14-18a117 117 0 0 1 4-2"/><path fill="#192e48" d="M191 245h1l.06 2.539q.118 4.658.257 9.314c.058 2.006.105 4.012.152 6.018l.117 3.809.095 3.523c.04 2.934.04 2.934 2.319 4.797 2.912.373 2.912.373 6.32.414l3.809.117 3.996.094 4.02.117q4.928.142 9.855.258l-1 2c-4.25.058-8.5.094-12.75.125l-3.656.05-3.516.02-3.237.032c-2.902-.232-4.478-.55-6.841-2.227-2.405-3.327-2.165-6.296-1.977-10.297l.157-3.652.195-3.801.172-3.848q.212-4.701.453-9.402"/><path fill="#feeed7" d="M405 153c4.685 1.442 4.685 1.442 5.969 3.719.042 3.085-1.389 4.365-3.436 6.543l-1.47 1.488-1.46 1.535A355 355 0 0 1 401 170c-1.315-4.158-.344-6.888 1-11l-2-1z"/><path fill="#112b45" d="m291 286 3 1c-3.5 13.064-11.114 24.928-20 35 0-3 0-3 1-5l-2-1 1.805-.238c4.237-1.47 6.09-6.01 8.195-9.762 1.368-3.337 1.368-3.337 2-6h2l.313-2.5c.803-4.093 2.15-7.625 3.687-11.5"/><path fill="#e49c41" d="M377 323c6.157 11.59 4.691 24.013 1.07 36.164C377 362 377 362 375 364c-.18-3.97-.076-6.58 2-10 1.64-3.281 1.143-6.898 1.125-10.5l.012-2.379c.101-4.194.101-4.194-1.137-8.121-.04-2-.043-4 0-6-3.814 1.168-3.814 1.168-6.312 4.125L370 333c-.437-2.187-.437-2.187 0-5 2.14-1.984 4.502-3.502 7-5"/><path fill="#0b2641" d="m375 398 2.266.621 2.984.817 2.953.808L386 401l1.906.59c7.934 1.554 17.16.705 25.094-.59-4.578 4.578-11.188 4.257-17.29 4.273l-2.96-.023-3.008.023-2.883-.007-2.61-.007C382 405 382 405 379 403h-2z"/><path fill="#f38c14" d="m435 336 3 7-10 6c0-4 0-4 1.5-5.75L431 342c-2.075-1.224-2.075-1.224-5-1l-1 4-3-3a369 369 0 0 1 4.25-3l2.39-1.687C431 336 431 336 435 336"/><path fill="#fbedd5" d="M454 217h1q-.212 2.688-.437 5.375l-.247 3.023C454 228 454 228 453 230h-2l-.437 3.375C450 237 450 237 449 239h-2l-1 5h-3l-1 3h-2c1.507-3.1 3.158-6.11 4.818-9.129 3.705-6.78 6.845-13.477 9.182-20.871"/><path fill="#e37c22" d="M375 162c3.806 3.208 7.546 6.407 11 10-1.477 3.452-3.438 5.65-6.125 8.25l-2.195 2.14L376 184l-5-5 4 2 1-2h3v-9a99 99 0 0 0-3-5z"/><path fill="#e89435" d="m347 282 2.656.219c12.45.91 24.865.883 37.344.781v1c-13.677 3.245-26.528 2.876-40-1z"/><path fill="#e79d35" d="M418 380a117 117 0 0 1 4.625 7.563l1.352 2.378C425 392 425 392 425 394l-7 4-4-7h2v2h2z"/><path fill="#f48b11" d="m432 341-2 4h-2v4l-7 2c-1-1-1-1-1.062-4.062L420 344c1.938-.562 1.938-.562 4-1l1 1 1-3c3-1 3-1 6 0"/><path fill="#dc7924" d="M427 212c3.005 1.325 4.81 2.706 6.938 5.188 1.466 1.618 1.466 1.618 3.062 2.812 2.814.041 2.814.041 5-1l1-5 4 2h-2v4c-2.19 2.19-2.963 2.74-6 3-2.5-1.312-2.5-1.312-5-3l-2.25-.937C430 218 430 218 429.39 215.933L429 214l-1.61 1.426-2.14 1.887-2.11 1.863A105 105 0 0 1 417 224c1.477-3.452 3.438-5.65 6.125-8.25l2.195-2.14z"/><path fill="#fbead3" d="M397 170c3 1 3 1 3.875 2.688L402 175c1.597 2.067 3.291 4.022 5 6-1.666.043-3.334.04-5 0l-1-1-1 1a84 84 0 0 1-5.062-.437l-2.786-.31L390 180l1-3h4v2h2l-.562-3.375C396 172 396 172 397 170"/><path fill="#172d43" d="m238 132 2.063 2.25c4.126 4.069 7.86 6.508 13.687 7.188 5.247-.259 10.259-1.897 15.25-3.438v2c-6.11 3.62-10.888 5.108-18 4-5.913-1.837-9.502-4.972-13-10z"/><path fill="#fcf1db" d="m398 206 1 2 1.688.75c2.87 1.551 4.676 3.6 6.847 6.008 1.526 1.565 1.526 1.565 4.465 1.242v2l-6-1-2 6-4-4 3-6-1.875-.812C399 211 399 211 397 208z"/><path fill="#0f2538" d="m296 335 2 1-1.828 1.723c-5.322 5.028-5.322 5.028-9.422 11.027-1.887 3.505-3.845 5.543-6.75 8.25a1121 1121 0 0 0-4.312 4.313L272 365c0-3 0-3 2.012-5.2.883-.82 1.766-1.641 2.675-2.488 3.771-3.643 6.645-7.034 9.235-11.566 1.64-2.657 3.795-4.638 6.078-6.746l2.313-2.312z"/><path fill="#102e47" d="m266 303 1 2c-1.331 3.86-4.088 6.241-7 9l2 1-1 2h-4c-1.672.304-3.34.631-5 1l-1-2 2.688-1.562c3.253-2.137 5.02-4.678 7.144-7.887 1.447-1.921 2.895-2.793 5.168-3.551"/><path fill="#fbfaec" d="M363 212h5l1 5h3c1.125 3.75 1.125 3.75 0 6l-6-1v-2l-3-2c-.187-3.125-.187-3.125 0-6"/><path fill="#13263a" d="M413 318c4.179.554 6.728 1.913 10.125 4.375l2.57 1.836C428 326 428 326 429.555 327.664c1.382 1.511 1.382 1.511 3.52 1.75 1.925.586 1.925.586 3.007 2.547l.73 2.414.77 2.398C438 339 438 339 437 342l-2-6h-2l-1.562-2.562C427.224 326.788 419.805 322.62 413 319z"/><path fill="#132a40" d="m373 324 2 1-1.54 1.215c-5.293 4.371-8.905 8.943-12.46 14.785l-2 3v-8h3l1-7 2.75-.812c2.965-1.084 4.867-2.172 7.25-4.188"/><path fill="#fdf2db" d="M378 190c4.592 0 6.813 2.907 10 6 1.38 1.628 2.736 3.28 4 5h-3v-2h-2v-2h-2v-2h-3l-1 2-2-1-2 2h-3l-1-3h3z"/><path fill="#fde9ca" d="M408 139v2l8 1c-3.849 1.386-7.018.587-11 0-8.44-.402-16.656.853-25 2 8.417-5.611 18.226-5.385 28-5"/><path fill="#0b3b5a" d="m174 121 3 1v3c1.193 2.938 2.66 4.873 5 7l-1 3-6-1-1-3-4 2 1.438-2.062c1.785-3.356 2.194-6.18 2.562-9.938"/><path fill="#d67221" d="M374 231c3.452 1.477 5.65 3.438 8.25 6.125l2.14 2.195L386 241c-1.611 4.052-4.5 6.762-7.562 9.75l-1.538 1.535C373.14 256 373.14 256 372 256v-5h3c2.127-1.762 2.127-1.762 4.188-4l2.167-2.25L383 243c-2.31-5.067-5.948-7.755-11-10z"/><path fill="#e27d1b" d="M342 185c2 2 2 2 2 5l2.238.25c3.356.911 4.61 2.216 6.95 4.75 2.608 2.899 2.608 2.899 5.812 5v2c-4.37-1.84-6.82-4.919-9.902-8.418-2.03-1.901-2.03-1.901-4.852-1.32L342 193v-4c-3.075.776-3.075.776-5 3l1-6c1.875-.625 1.875-.625 4-1"/><path fill="#0d3653" d="M236 128c1.938.313 1.938.313 4 1l1 3 6 1-2 5 3.25.313c3.608.661 5.114 1.262 7.75 3.687-5.968.746-9.397-1.558-14-5-2.523-2.257-4.114-4.171-6-7z"/><path fill="#1b3650" d="M303 216h1c1.367 9.418.669 18.553 0 28h-1c-1.87-10.016-2.826-18.108 0-28"/><path fill="#f88710" d="m410.75 198.75 2.25.25v2l1.875.875C417 203 417 203 419 205l-1 3c-1.875-.25-1.875-.25-4-1-1.25-2.062-1.25-2.062-2-4l-1.75.563c-2.457.477-3.894.194-6.25-.563 3.323-3.938 3.323-3.938 6.75-4.25"/><path fill="#d77828" d="M409 195c2 0 2 0 4.313 2.188L416 200l2.813 2.813L421 205l-1 3-1.812-2.375c-2.099-2.77-2.099-2.77-5.188-4.625v-2c-5.686 1.322-7.678 3.443-11 8l-1 2-2-1c1.396-3.186 3.046-5.24 5.563-7.625 2.577-2.42 2.577-2.42 4.437-5.375"/><path fill="#15283f" d="M414 290c-6.206 2.879-12.427 5.635-18.809 8.105-2.124.868-4.153 1.841-6.191 2.895l-1-3 4.25-1.687 2.742-1.086a232 232 0 0 0 6.203-2.641l3.18-1.399 2.96-1.332c2.79-.895 3.976-.894 6.665.145"/><path fill="#eceff1" d="M251 87c7.385-.37 7.385-.37 10.5 1.5L263 90l-2 5-6-1-.312-2.375c-.464-2.955-.464-2.955-3.688-4.625"/><path fill="#fcf9ee" d="m373 225 3 4h-4v2h-3l-1 3 1 2-6-1v-4l3-1 1-2h3v-2z"/><path fill="#143555" d="m400 126-3.465.367-4.473.508-2.287.238c-1.934.226-3.857.55-5.775.887l-1 2c-1.96.45-1.96.45-4.375.688l-2.398.261C374 131 374 131 371 130c22.738-7.56 22.738-7.56 29-4"/><path fill="#feeac8" d="m352 284 3 .5c10.183 1.268 20.854.866 31-.5l-2 3c-2.519.372-2.519.372-5.672.363l-3.453-.002-3.625-.048-3.578.01c-5.705-.036-10.282-.299-15.672-2.323z"/><path fill="#faf0e0" d="M299 308h2c-1.875 4.75-1.875 4.75-3 7l1.68-1.129 2.195-1.433 2.18-1.442L306 310l2 1c-2.257 2.335-4.28 4.187-7 6-3.687-.375-3.687-.375-7-1l2-5h3z"/><path fill="#102239" d="M446 143c2.867 1.285 4.976 2.571 7 5v2l3 1a150 150 0 0 1 4 6l2 2a70 70 0 0 1 1.625 4.625c.26.817.52 1.635.79 2.477L465 168c-2.646-2.4-4.302-5.002-6.125-8.062-3.235-5.203-6.952-9.593-11.152-14.04C446 144 446 144 446 143"/><path fill="#0f3a59" d="M154 128c1.938.375 1.938.375 4 1l1 2c-.89 2.59-1.62 3.755-3.937 5.25-3.116 1.133-4.934.793-8.063-.25l1-3 6-1z"/><path fill="#0f2f48" d="m266 370 1 2h-2l-.187 1.688c-1.152 3.276-3.295 4.978-5.813 7.312l-2 2c-2.125-.375-2.125-.375-4-1q2.683-2.724 5.375-5.437l1.54-1.565c3.858-3.885 3.858-3.885 6.085-4.998"/><path fill="#112a41" d="M99 301c3 1 3 1 4.625 3.688 3.41 5.421 9.365 8.934 15.438 10.687L122 316v1c-5.904-.388-10.777-1.122-16-4-1.125-1.75-1.125-1.75-2-4-1.283-1.871-2.626-3.689-3.977-5.512C99 302 99 302 99 301"/><path fill="#0a253b" d="M114 277h1l.184 2.887.254 3.8c.08 1.242.162 2.483.246 3.762.26 2.933.664 5.685 1.316 8.551l2.875.875C123 298 123 298 125 300c-1.687.75-1.687.75-4 1-3.675-2.151-6.004-4.72-7.574-8.719-.94-5.04-.056-10.235.574-15.281"/><path fill="#d87525" d="M362 219c4.74 2.43 4.74 2.43 5.86 4.88.14 2.12.14 2.12-1.123 3.951l-1.92 1.84-2.061 2.013-2.193 2.066-2.182 2.113A596 596 0 0 1 353 241c0-3 0-3 2.406-5.559a350 350 0 0 1 4.684-4.326c1.374-1.3 2.649-2.704 3.91-4.115v-6h-2z"/><path fill="#ed8f24" d="m402.188 274.313 2.73.363L407 275c-2.813 2.304-5.281 3.616-8.75 4.688-.8.25-1.598.502-2.422.761L394 281c0-4 0-4 1.176-5.77 2.528-1.705 4.033-1.343 7.012-.918"/><path fill="#e2eef6" d="m250 88 1 3-1 2h-2v33h-1q-.111-7.153-.165-14.307a723 723 0 0 0-.061-4.865 703 703 0 0 1-.067-7c-.015-.723-.03-1.446-.047-2.191-.001-4.174.371-6.61 3.34-9.637"/><path fill="#e39c45" d="M305 300c1.136 3.717.667 5.47-1 9l4 1-11 6z"/><path fill="#fdfaec" d="m345 217 2 1-2 7h-2l-1 3-4-3c1.098-2.993 1.677-3.846 4.625-5.25L345 219z"/><path fill="#feebd0" d="m351 207 1 3-1 2h-2l2 4c-1 1-1 1-3.562 1.063L345 217v2l-5 2c3.198-5.117 6.958-9.527 11-14"/><path fill="#0d3756" d="m236 403 2 2c-8.47 7.787-8.47 7.787-12.223 8.309C223.875 413 223.875 413 221 412v-3l2.625.188c4.622-.257 7.816-1.785 11.25-4.875z"/><path fill="#e9952c" d="m321 298 4 3a1458 1458 0 0 1-7.312 4l-2.092 1.156C310.34 309 310.34 309 307 309l2-4 3 1 .625-1.937C314 302 314 302 317.125 301.25L320 301z"/><path fill="#e67f20" d="m357 214 2 2-6 5h3v3h-2l-1 3-2-2c-2.108.319-2.108.319-4 1 6.15-8.446 6.15-8.446 10-12"/><path fill="#d9721d" d="m429 175 1 3-2.152 1.898-2.786 2.477-2.777 2.46c-2.321 1.952-2.321 1.952-3.285 4.165h2l1 5-5-4c.413-4.45 3.505-6.841 6.563-9.75l1.576-1.535c1.28-1.245 2.57-2.481 3.861-3.715"/><path fill="#fde9cc" d="M415 346h3a197 197 0 0 1-3 5.86c-2.46 4.652-3.897 8.994-5 14.14h-1c.885-14.885.885-14.885 6-20"/><path fill="#e89c3f" d="M315 272c2.957 3.467 5.078 6.869 7 11-2 0-2 0-3.625-1.5L317 280l-5 3q.462-2.47.938-4.937l.527-2.778C314 273 314 273 315 272"/><path fill="#fcf9eb" d="m350 245 5 2v4h-4v2l-4-1c.613-2.962 1.254-4.38 3-7"/><path fill="#e8eaeb" d="m317 184 2 2-1 3-3 1 3 5-3 3-3-2c1.142-4.48 2.43-8.145 5-12"/><path fill="#172b40" d="M304 113c5.303.321 8.56 3.211 12 7 1.684 2.543 3.148 5.062 4 8l-1 3q-1.189-2.124-2.375-4.25l-1.336-2.39a84 84 0 0 1-2.336-4.59c-1.256-2.333-2.56-2.714-4.953-3.77-1.351-.976-2.69-1.97-4-3"/><path fill="#0e3552" d="M266 101h1c.087 4.229.14 8.458.188 12.688l.076 3.63.029 3.506.048 3.222c-.386 3.341-1.427 5.224-3.341 7.954l-2-1 1-5h2z"/><path fill="#0e2439" d="m285 303 1 2c-3.24 6.157-7.377 11.816-12 17 0-3 0-3 1-5l-2-1 1.734-.121c3.469-1.346 4.562-3.847 6.516-6.942l2.14-3.347z"/><path fill="#fdeac9" d="m318 276 3 1v2l3 1 1.375 2.313c1.84 3.041 3.806 4.555 6.625 6.687a178 178 0 0 1 4 4c-8.05-2.264-13.665-9.227-18-16z"/><path fill="#fde9d3" d="M385 179c3 1 3 1 5 3l-7 7-3-2c1.613-2.712 3.249-5.374 5-8"/><path fill="#fde9c6" d="m405 276 2 1-1 2h-4v2c-3.266 1.913-5.994 2.357-9.75 2.625l-2.984.227L387 284c3.359-2.24 6.839-3.69 10.563-5.187l2.076-.866c1.763-.71 3.56-1.336 5.361-1.947"/><path fill="#feedcc" d="M368 260h1l1 6 2.313-2.062L375 262l3 1-6 6-5-2z"/><path fill="#fef5dc" d="m389 247 3 2-12 12-1-4c4.75-4 4.75-4 7-4l1-4h2z"/><path fill="#fde8c5" d="M358 170c3.695.2 4.787.764 7.313 3.563L367 176c-5.75-.75-5.75-.75-8-3v7l-2-1c-.098-6.152-.098-6.152 0-8z"/><path fill="#0b243d" d="M144 112h1c2.112 15.745 2.112 15.745 3 23-3-2-3-2-4-5a66 66 0 0 1-.098-4.23l.01-2.432.025-2.525.014-2.561q.02-3.126.049-6.252"/><path fill="#fcf1de" d="M321 303c-.312 1.938-.312 1.938-1 4l-3 1-1 2-5-1-1 2-2-2q2.684-1.507 5.375-3l3.023-1.687C319 303 319 303 321 303"/><path fill="#e4781b" d="m433 194-5 6-6-5c3.77-2.564 6.674-1.832 11-1"/><path fill="#feeecd" d="M346.188 191.313 348 192l-2 1-1 3h-2l3 3-1 3c-2-1.187-2-1.187-4-3-.52-2.97-.43-4.356 1.25-6.875C344 191 344 191 346.188 191.313"/><path fill="#16293f" d="M455 249c1 2 1 2 .375 4.313-1.65 3.225-3.759 5.199-6.375 7.687a97 97 0 0 0-3 4l-3-1 1.355-1.504c3.854-4.33 7.361-8.72 10.645-13.496"/><path fill="#0a3050" d="m68 67 2 2-1.39 1.723C64.96 75.316 61.754 79.82 59 85l-1-2a105 105 0 0 1 3.813-7l1.119-1.945C64.454 71.443 65.854 69.146 68 67"/><path fill="#ec9327" d="m428 350-2.312 2.25c-2.127 2.176-3.944 4.272-5.688 6.75l-1-4h2l-3-5c3.663-.75 6.424-1.238 10 0"/><path fill="#dfe5e6" d="M347 307c-2.984 1.54-6.01 2.87-9.125 4.125l-2.633 1.07C333 313 333 313 331 313l1-5 1.688.688c2.447.582 2.447.582 4.687-1.188 3.327-1.9 4.997-1.428 8.625-.5"/><path fill="#ee911f" d="m434 244 6 2c-3.625 5.75-3.625 5.75-7 8z"/><path fill="#e2a04c" d="m364 366 1 2c-.996 1.736-2 3.47-3.09 5.148-1.204 2.106-1.204 2.106-.91 5.852l3 1-3 2c-3-5.28-3-5.28-3-8 1.542-3.084 3.715-5.422 6-8"/><path fill="#112335" d="m437 271 2 1c-4.808 4.333-9.665 8.332-15 12l-2-1q2.904-2.44 5.813-4.875l1.658-1.395c2.448-2.048 4.87-3.957 7.529-5.73"/><path fill="#ededeb" d="M425.688 277.313 428 278c-3.126 3.394-5.565 5.606-10 7 2.897-8.245 2.897-8.245 7.688-7.687"/><path fill="#fef0cf" d="m350 243 3 2-3 1c-2.277 2.815-2.277 2.815-2 6l3 1v-2l3 1c-2 2-2 2-4.5 2.25C347 254 347 254 345 252c.178-3.383.788-4.763 3.063-7.312z"/><path fill="#feeed7" d="M422 211h6c-3.381 4.136-6.666 7.813-11 11l1-5h3v-2h2z"/><path fill="#fdedd2" d="m361 211 1 3h2v4l3 2-2 1a729 729 0 0 1-3.937-2.875l-2.215-1.617C357 215 357 215 356 213z"/><path fill="#d5701c" d="M356 178a85 85 0 0 1 13 13l-4 3 .281-2.207c-.386-3.832-1.972-4.927-4.781-7.48A131 131 0 0 1 356 180z"/><path fill="#e89734" d="m388 144-2.437.875c-2.696.858-2.696.858-3.563 3.125l-6-1v2h-5c4.47-4.081 11.083-6.99 17-5"/><path fill="#09223a" d="M312 191c1.353 4.06.152 5.771-1.437 9.688l-1.434 3.574L308 207c-1.307-4.297-.66-7.602 0-12l3-1z"/><path fill="#0d253c" d="M468 168v7l3 1-1 7c-2.571-2.571-2.801-4.605-3.625-8.125-.26-1.096-.52-2.191-.79-3.32L465 169c2-1 2-1 3-1"/><path fill="#e4962a" d="M414 391h2v2l7-1c-.25 1.875-.25 1.875-1 4-2.062 1.25-2.062 1.25-4 2z"/><path fill="#0b2745" d="m362 385 8 8-1 2-6-3v-2l-2-1z"/><path fill="#e2e5e7" d="M446 144a159 159 0 0 1 6 5v2h-3l-1 2-2-1v-2l-2-1 3-1z"/><path fill="#163b56" d="m252 383 3 1 1 5c-3.069 1.534-5.7.55-9 0l2-3h2z"/><path fill="#fdfaee" d="m416 194 5 1v8h-2l-1-3c-1.5-1.667-1.5-1.667-3-3z"/><path fill="#feecd0" d="m403 159 1 4h2c-1.393 3.367-2.979 4.986-6 7 .672-3.806 1.727-7.352 3-11"/><path fill="#0d365a" d="M410 293c-5.067 4.288-10.535 5.224-17 6 3.035-2.503 5.932-3.916 9.625-5.25l2.914-1.078C408 292 408 292 410 293"/><path fill="#fbe8c8" d="M454 217h1q-.212 2.688-.437 5.375l-.247 3.023C454 228 454 228 453 230h-3l1.438-4.812.808-2.708A215 215 0 0 1 454 217"/><path fill="#ef8624" d="m399 222 3 1 1 3-6 5-1-3 1-2h2z"/><path fill="#e59632" d="M333 183c.98 3.076 1.15 3.686-.312 6.75L331 192h-2v4l-3 1c1.46-5.31 3.983-9.463 7-14"/><path fill="#e7912a" d="M342 171c0 3 0 3-2 6v3l-3 1-1 2h-2c1.51-4.98 4.557-8.243 8-12"/><path fill="#122b45" d="m323 171 1 3c-.926 1.824-.926 1.824-2.312 3.688l-1.364 1.886L319 181h-2c.995-4.644 1.96-7.307 6-10"/><path fill="#2d4557" d="m405 314 5 1v2l2 1-18-1v-1h11z"/><path fill="#e9932f" d="M323 260h2l2 6h5l-1 6c-3.277-3.1-5.931-5.971-8-10z"/><path fill="#f28217" d="M374 233c1.5 1.375 1.5 1.375 3 3v2h-2v2h-2v-2h-3c.313-1.937.313-1.937 1-4z"/><path fill="#fee6c5" d="M386 206c1 3 1 3 .18 4.79-3.555 5.002-3.555 5.002-6.993 6.148L377 217l1.207-1.39c2.704-3.133 5.373-6.249 7.793-9.61"/><path fill="#fafaed" d="M348 193c1.125 5.75 1.125 5.75 0 8h-2c-2-2-2-2-3-5 2.75-3 2.75-3 5-3"/><path fill="#ef8f24" d="m417 143 3 2h-7l-1 3h-3l-1-4c3.019-1.51 5.673-1.175 9-1"/><path fill="#d7dddb" d="M357 349c2.671 3.839 1.84 7.399 1.125 11.75l-.316 2.113A484 484 0 0 1 357 368h-1q-.04-3.906-.062-7.812l-.026-2.237c-.015-3.25.053-5.845 1.088-8.951"/><path fill="#e37e18" d="m375 210 3 2 3-1c-1.443 3.366-3.333 5.51-6 8l-1-2h2l-1.062-1.812C374 213 374 213 375 210"/><path fill="#feedd5" d="m419 192 7 6-4 3-2-1 1-5-3-1z"/><path fill="#feefca" d="M440 186c1.938.063 1.938.063 4 1 1.25 3.063 1.25 3.063 2 6l-5 4v-3h2v-5l-4-2z"/><path fill="#0b3251" d="m482 415 2 1c-1.59 5.09-4.745 8.875-8 13l-1-3 3-1c1.135-2.295 1.135-2.295 2-5z"/><path fill="#1d384f" d="m244 344 4 1c-1.491 3.795-3.757 5.61-7 8l1-5h2z"/><path fill="#fcebd2" d="M439 247c.981 3.053.981 4.947 0 8l-7 1q1.467-1.97 2.938-3.937l1.652-2.215C438 248 438 248 439 247"/><path fill="#fcf9eb" d="m425 232 1 3c-1.25 1.563-1.25 1.563-3 3-2.187-.312-2.187-.312-4-1 .375-1.937.375-1.937 1-4 2-1 2-1 5-1"/><path fill="#d97922" d="M343 201c3.366 1.443 5.51 3.333 8 6-1.75 3.875-1.75 3.875-4 5l.25-2.812c.116-3.279.116-3.279-2.25-4.938l-2-1.25z"/><path fill="#e1e6e4" d="m382 130 1 4-6 2 1-4-6 1c3.352-2.235 5.988-3 10-3"/><path fill="#f8edd6" d="m437 343 2 4-3 3-2-3-5 2c2.49-2.667 4.634-4.557 8-6"/><path fill="#103653" d="m259 312 1 2 2 1-1 2h-4c-1.672.304-3.34.631-5 1l-1-2 2.875-.875c3.177-.893 3.177-.893 5.125-3.125"/><path fill="#eb922c" d="m412 268 4 2a466 466 0 0 1-3.375 2.5l-1.898 1.406C409 275 409 275 407 275v-2h2v-3h3z"/><path fill="#e98f24" d="M454 213c1.124 3.304.896 5.05-.437 8.25l-.872 2.14L452 225c-1.562-1.75-1.562-1.75-3-4 .313-2.25.313-2.25 1-4h2z"/><path fill="#ea7e1a" d="m361 193 4 2-5 6-3-2z"/><path fill="#feeecf" d="M425 167c2.063.438 2.063.438 4 1l-2.5 1.313L424 171v3l-6 1 2.938-3.437 1.652-1.934A50 50 0 0 1 425 167"/><path fill="#df7518" d="M403 167c1.607 3.215 1.057 6.436 1 10l-5-4c1.152-2.468 2.048-4.048 4-6"/><path fill="#1b202d" d="M432 389v2c-2.336 1.762-2.336 1.762-5.375 3.688l-3.023 1.949L421 398l-2-1q2.681-2.008 5.375-4l3.023-2.25C430 389 430 389 432 389"/><path fill="#fdeac8" d="M379 353c1.2 3.477.801 5.699-.25 9.188l-.766 2.667L377 367l-3 1z"/><path fill="#fdfced" d="M403 249c3 2 3 2 3.688 4.125L407 255l-4 2-2-6z"/><path fill="#e17319" d="m415 178-6 5-3-4c6.75-2.125 6.75-2.125 9-1"/><path fill="#fdefd3" d="m353 158 2 1-9 8-1-4c3-2 3-2 6-2v-2z"/><path fill="#fdf9e6" d="m405 157 4 1-1 4-4 1z"/><path fill="#0e2f4a" d="m156 85 4 1v2a105 105 0 0 1-5 4l-2-3z"/><path fill="#0d2439" d="m308 326 2 1c-2.597 3.895-4.834 4.917-9 7l-2-1z"/><path fill="#eb851d" d="m414 252 2 1-1 7-5 1c1.199-3.083 2.477-6.063 4-9"/><path fill="#feefcb" d="m335 225 1 2-1 3 5 1-1 2-5-1c-.625-2.375-.625-2.375-1-5z"/><path fill="#293f51" d="m172 125 2 1c-1.074 2.915-1.778 4.778-4 7-2.688.27-5.291.087-8 0v-1l3.313-.687c3.812-.97 3.812-.97 5.625-3.938z"/><path fill="#1d3b54" d="m365 393 1.813.5c2.3.611 2.3.611 5.187.5 2.188 2 2.188 2 4 4-4.128-.607-7.332-2.038-11-4z"/><path fill="#dce0e0" d="m296 280 2 2c-.25 4.744-1.363 5.363-5 9z"/><path fill="#fceacb" d="M367 222h2l1 6h-3l-1 3-3-1 2-1.75c2.443-2.247 2.443-2.247 2-6.25"/><path fill="#fbecd8" d="M411 386c2.154 2.622 3.4 4.644 4 8h-6z"/><path fill="#d39b4d" d="M431 336h4l3 7-4 2 1-6h-2v-2z"/><path fill="#0f3552" d="m298 333 3 2-8 8-2-1 1.277-1.46 1.66-1.915 1.653-1.898c1.48-1.683 1.48-1.683 2.41-3.727"/><path fill="#092a4b" d="M353 308c-1.75 1.563-1.75 1.563-4 3-2.25-.312-2.25-.312-4-1v-2c2.862-1.43 4.934-.6 8 0"/><path fill="#152f47" d="m116 294 1 2q2.994 1.02 6 2l2 2c-1.687.75-1.687.75-4 1-2.75-1.75-2.75-1.75-5-4z"/><path fill="#ea7d17" d="M421 220h1v9l-4-4c1.875-3.875 1.875-3.875 3-5"/><path fill="#e67f1a" d="m340 193 2 1-.062 2.375c-.125 2.606-.125 2.606 1.062 4.625h-5c.875-5.75.875-5.75 2-8"/><path fill="#ee952a" d="M454 182c1.765 3.088 2 4.233 2 8h-2v2h-2z"/><path fill="#23384e" d="M171 142c-2 2-2 2-4.383 2.195l-2.742-.07-2.758-.055L159 144c4.068-2.712 7.307-3.564 12-2"/><path fill="#fbf4e3" d="M421 376h3l-3 9c-2-2-2-2-2.125-4.625L419 378h2z"/><path fill="#e69534" d="M431 337v2l-1.875.75c-2.476 1.456-3.076 2.628-4.125 5.25l-3-3a466 466 0 0 1 3.375-2.5l1.898-1.406C429 337 429 337 431 337"/><path fill="#faebd2" d="m432 334 1 2-9 5v-4h4v-2z"/><path fill="#e79c44" d="M334 293c2.625.375 2.625.375 5 1v2l-9 2 2-1v-2z"/><path fill="#12344d" d="M171 270c1.063 1.813 1.063 1.813 2 4l-1 3c-3.062 1.188-3.062 1.188-6 2v-2l3-2c1.205-2.552 1.205-2.552 2-5"/><path fill="#fde8c1" d="m411 254 2 4c-1.187 1.563-1.187 1.563-3 3-2.687-.312-2.687-.312-5-1l1.875-.75c2.476-1.456 3.076-2.628 4.125-5.25"/><path fill="#e68226" d="M334 221h2l1 3-1.375 1.25c-1.69 1.82-2.566 3.522-3.625 5.75q.212-2.22.438-4.437c.08-.824.162-1.648.246-2.497C333 222 333 222 334 221"/><path fill="#ee7f10" d="M359 216c3 2 3 2 3.813 4.5L363 223l-2 2c-2.29-3.435-2.178-4.985-2-9"/><path fill="#0e3450" d="M189 205h1l.148 2.52.227 3.292c.07 1.08.14 2.158.21 3.27.227 3.104.227 3.104 2.415 5.918h-3c-1.442-2.884-1.094-5.417-1.062-8.625l.027-3.602z"/><path fill="#f18315" d="M406 173h2l1 5-4 1-1-4h2z"/><path fill="#fcf9ed" d="M429 168v6l-6-1c.813-1.937.813-1.937 2-4 3-1 3-1 4-1"/><path fill="#1c3b54" d="m259 131 1 4h-9c2-3 2-3 5.125-3.687z"/><path fill="#1e384d" d="m240 396 3 2c-2.312 2.063-2.312 2.063-5 4l-3-1z"/><path fill="#f3efe8" d="m380 321 3 1-2 5h-3c.875-4.875.875-4.875 2-6"/><path fill="#1d3650" d="m358 306-3 3-6-2c3.35-2.11 5.221-2.05 9-1"/><path fill="#17324b" d="M288 294c1.108 3.323.933 4.692 0 8l-2 2h-2l1-4h2z"/><path fill="#e2eef5" d="M99 291c2.952 2.952 3.087 5.955 4 10l-2 1c-1.802-3.83-2.196-6.781-2-11"/><path fill="#e2e6e5" d="m412 284 6 1c-2.386 1.892-4.072 3.024-7 4z"/><path fill="#e7f0f5" d="M142.625 240.875 146 241l-1.875.25c-2.31.563-2.31.563-3.375 2.813L140 246l-3-3c2-2 2-2 5.625-2.125"/><path fill="#fdeccf" d="M438 188c2 3 2 3 3 6l-7-1z"/><path fill="#e59b41" d="m350 162 2 1c-4.821 6.295-4.821 6.295-9 7l2.938-3.437 1.652-1.934A50 50 0 0 1 350 162"/><path fill="#ffedd0" d="M376 156c3.375.313 3.375.313 7 1l2 3-4 1-1-4-4 1z"/><path fill="#faf2dc" d="m443 155 2 1c.594 2.649.742 5.292 1 8-4.875-4.75-4.875-4.75-6-7h3z"/><path fill="#dfe8ec" d="m104 120 2 3-3 1-1 5h-2c1.059-3.403 2.009-6.014 4-9"/><path fill="#dce7ed" d="M234 123c2.458 3.687 3.012 6.697 4 11h-2c-2.68-4.019-2.156-6.242-2-11"/><path fill="#e8eae8" d="M438 370h2c-.875 5.75-.875 5.75-2 8h-2v-5h2z"/><path fill="#e0e6eb" d="M104 305c2.886.398 3.822.79 5.75 3.063L111 310l-1 2a159 159 0 0 1-6-5z"/><path fill="#1d3a53" d="m440 267 2 4-4 4-1-5h2z"/><path fill="#f28a26" d="m339 214 3 4-3 3-2-5z"/><path fill="#fee8c7" d="M418 209c1 2 1 2 .375 4.063C417 215 417 215 414.375 215.75L412 216z"/><path fill="#fb8814" d="m405 210 7 1v4c-2.886-.398-3.822-.79-5.75-3.062z"/><path fill="#e67b16" d="M343 212c2.063.438 2.063.438 4 1l-6 5c.875-4.875.875-4.875 2-6"/><path fill="#122841" d="M319 147h1c.25 2.813.25 2.813 0 6-2 1.875-2 1.875-4 3 .498-3.735.875-5.812 3-9"/><path fill="#1c3e59" d="M181 118h1v9h2l-1 5c-2.28-3.42-2.22-4.682-2.125-8.687l.055-3.012z"/><path fill="#072238" d="M254 84c7.571 1.857 7.571 1.857 10 5l-1 2-2.25-1.937c-2.461-1.846-3.785-2.624-6.75-3.063z"/><path fill="#0d2840" d="M221 409h8l-2 3c-3.125.188-3.125.188-6 0z"/><path fill="#0e345c" d="m427 393 4 2-1 2h-7z"/><path fill="#faefdc" d="M360 365h5a250 250 0 0 1-4 6h-1z"/><path fill="#e89225" d="m431 343 3 1-5 5-1-4z"/><path fill="#e3e8ea" d="M428 329c2 1.313 2 1.313 4 3v3l-5-2z"/><path fill="#fce9ca" d="m306 310 2 1c-1.75 2.063-1.75 2.063-4 4-2.25-.25-2.25-.25-4-1z"/><path fill="#e9973a" d="M333 274c2.813.188 2.813.188 6 1 1.875 2.563 1.875 2.563 3 5-3.937-1.312-6.227-2.92-9-6"/><path fill="#fbf0da" d="m330 272 6 4c-1.875 1.063-1.875 1.063-4 2l-2-1z"/><path fill="#fde8c9" d="m389 247 3 2-6 5 1-5h2z"/><path fill="#fff5db" d="m402 226 1 3-2 1-1 3-4-1z"/><path fill="#fee7c4" d="m368 212 7 6-3 1v-2h-3z"/><path fill="#fce8ca" d="m398 206 1 2 2 1c2 1 2 1 3 3l-3 1-4-5z"/><path fill="#0c2841" d="M197 186c-4.75 4.875-4.75 4.875-7 6l1-6c3-1 3-1 6 0"/><path fill="#fce5c8" d="m414 178 1 2c-1.437 2.625-1.437 2.625-3 5l-3-2z"/><path fill="#fdfbef" d="m401 177 2 3 3 2c-2.375.625-2.375.625-5 1l-2-2z"/></svg>